<svg width="24" height="24" viewBox="0 0 24 24" fill="none" xmlns="http://www.w3.org/2000/svg">
<path d="M18.8905 7.66428C19.208 7.87635 19.5895 8 20 8C21.1046 8 22 7.10457 22 6C22 4.89543 21.1046 4 20 4C18.8954 4 18 4.89543 18 6C18 6.69411 18.3536 7.30564 18.8905 7.66428ZM18.8905 7.66428L13.1095 16.3357M13.1095 16.3357C12.792 16.1236 12.4105 16 12 16C11.3457 16 10.7648 16.3142 10.3999 16.7999M13.1095 16.3357C13.6464 16.6944 14 17.3059 14 18C14 19.1046 13.1046 20 12 20C10.8954 20 10 19.1046 10 18C10 17.5497 10.1488 17.1342 10.3999 16.7999M10.3999 16.7999L5.60009 13.2001M5.60009 13.2001C5.8512 12.8658 6 12.4503 6 12C6 10.8954 5.10457 10 4 10C2.89543 10 2 10.8954 2 12C2 13.1046 2.89543 14 4 14C4.6543 14 5.23521 13.6858 5.60009 13.2001Z" stroke="white" stroke-width="1.5" stroke-linecap="round" stroke-linejoin="round"/>
</svg>
