<svg width="34" height="34" viewBox="0 0 34 34" fill="none" xmlns="http://www.w3.org/2000/svg">
<path fill-rule="evenodd" clip-rule="evenodd" d="M22.6618 18.4167L18.4142 14.1691L17 12.7549L15.5858 14.1691L11.3382 18.4167H8.5C6.15279 18.4167 4.25 16.5139 4.25 14.1667C4.25 11.8195 6.15279 9.91667 8.5 9.91667C9.15933 9.91667 9.489 9.91667 9.7201 9.78412C9.75718 9.76285 9.77568 9.75087 9.81027 9.72576C10.0258 9.56919 10.1954 9.19145 10.5344 8.43598C11.6418 5.96852 14.1202 4.25 17 4.25C19.8526 4.25 22.3114 5.93625 23.4339 8.36633C23.8142 9.18978 24.0044 9.60151 24.2508 9.75909C24.4972 9.91667 24.8569 9.91667 25.5765 9.91667H25.75C27.9591 9.91667 29.75 11.7075 29.75 13.9167V14.4167C29.75 16.6258 27.9591 18.4167 25.75 18.4167H22.6618Z" fill="white"/>
<path d="M17 17L16.2929 16.2929L17 15.5858L17.7071 16.2929L17 17ZM18 29.75C18 30.3023 17.5523 30.75 17 30.75C16.4477 30.75 16 30.3023 16 29.75L18 29.75ZM10.6262 21.9596L16.2929 16.2929L17.7071 17.7071L12.0404 23.3738L10.6262 21.9596ZM17.7071 16.2929L23.3738 21.9596L21.9595 23.3738L16.2929 17.7071L17.7071 16.2929ZM18 17L18 29.75L16 29.75L16 17L18 17Z" fill="white"/>
</svg>
