<svg width="19" height="19" viewBox="0 0 19 19" fill="none" xmlns="http://www.w3.org/2000/svg">
<path d="M8.03049 5.24684C8.65321 3.69438 8.96458 2.91815 9.5 2.91815C10.0354 2.91815 10.3468 3.69438 10.9695 5.24684L10.9985 5.31913C11.3503 6.19619 11.5262 6.63472 11.8847 6.90127C12.2432 7.16781 12.7139 7.20996 13.6551 7.29425L13.8252 7.30949C15.3657 7.44745 16.1359 7.51643 16.3007 8.00646C16.4655 8.49649 15.8935 9.01688 14.7495 10.0577L14.3677 10.405C13.7886 10.9319 13.4991 11.1953 13.3641 11.5406C13.3389 11.605 13.318 11.671 13.3014 11.7381C13.2127 12.0981 13.2975 12.4802 13.4671 13.2446L13.5199 13.4825C13.8316 14.8872 13.9874 15.5895 13.7153 15.8925C13.6136 16.0057 13.4815 16.0872 13.3347 16.1272C12.9419 16.2344 12.3842 15.78 11.2687 14.871C10.5363 14.2742 10.1701 13.9758 9.74965 13.9087C9.58427 13.8823 9.41574 13.8823 9.25035 13.9087C8.8299 13.9758 8.46368 14.2742 7.73126 14.871C6.61584 15.78 6.05813 16.2344 5.6653 16.1272C5.51851 16.0872 5.38637 16.0057 5.28471 15.8925C5.01263 15.5895 5.16846 14.8872 5.48011 13.4825L5.5329 13.2446C5.70248 12.4802 5.78727 12.0981 5.69856 11.7381C5.68201 11.671 5.66109 11.605 5.63591 11.5406C5.50095 11.1953 5.2114 10.9319 4.63229 10.405L4.25048 10.0577C3.10649 9.01689 2.53449 8.49649 2.6993 8.00646C2.86411 7.51643 3.63433 7.44745 5.17476 7.30949L5.34492 7.29425C6.28615 7.20996 6.75676 7.16781 7.11527 6.90127C7.47377 6.63472 7.64968 6.19619 8.00149 5.31913L8.03049 5.24684Z" stroke="#33363F" stroke-width="2"/>
</svg>
