<svg width="20" height="20" viewBox="0 0 20 20" fill="none" xmlns="http://www.w3.org/2000/svg">
<path d="M8.75 10H10V13.3333H11.6667M10 6.66667H10.0083M11.3024 17.3861C12.2723 17.215 13.1991 16.8546 14.0297 16.3254C14.8604 15.7962 15.5787 15.1086 16.1436 14.3018C16.7086 13.495 17.109 12.5849 17.3222 11.6233C17.5354 10.6617 17.5571 9.66759 17.3861 8.69764C17.215 7.72769 16.8546 6.80092 16.3254 5.97025C15.7962 5.13958 15.1086 4.42128 14.3018 3.85636C13.495 3.29144 12.5849 2.89095 11.6233 2.67778C10.6617 2.46461 9.66759 2.44291 8.69764 2.61394C7.72769 2.78497 6.80092 3.14537 5.97025 3.67456C5.13958 4.20376 4.42128 4.89138 3.85636 5.69818C3.29144 6.50497 2.89095 7.41514 2.67778 8.3767C2.46461 9.33827 2.44291 10.3324 2.61394 11.3024C2.78497 12.2723 3.14537 13.1991 3.67457 14.0297C4.20376 14.8604 4.89138 15.5787 5.69818 16.1436C6.50497 16.7086 7.41514 17.109 8.3767 17.3222C9.33827 17.5354 10.3324 17.5571 11.3024 17.3861Z" stroke="white" stroke-width="2" stroke-linecap="round" stroke-linejoin="round"/>
</svg>
